<?xml version="1.0" encoding="utf-8"?>
<!-- Generator: Adobe Illustrator 16.0.0, SVG Export Plug-In . SVG Version: 6.00 Build 0)  -->
<!DOCTYPE svg PUBLIC "-//W3C//DTD SVG 1.1//EN" "http://www.w3.org/Graphics/SVG/1.1/DTD/svg11.dtd">
<svg version="1.1" id="Capa_1" xmlns="http://www.w3.org/2000/svg" xmlns:xlink="http://www.w3.org/1999/xlink" x="0px" y="0px"
	 width="32px" height="32px" viewBox="0 0 32 32" enable-background="new 0 0 32 32" xml:space="preserve">
<g>
	<g>
		<path fill-rule="evenodd" clip-rule="evenodd" fill="#494738" d="M30.899,16.064c-0.018,8.354-6.698,14.924-15.164,14.911
			c-8.233-0.012-14.819-6.76-14.734-15.228c0.08-8.04,6.604-14.727,15.08-14.683C24.282,1.107,30.917,7.807,30.899,16.064z"/>
		<path fill-rule="evenodd" clip-rule="evenodd" fill="#DBA223" d="M28.993,16.162c-0.315-0.168-0.679-0.267-0.953-0.481
			c-0.408-0.318-0.797-0.694-0.702-1.301c0.077-0.496,0.45-0.72,0.858-0.901c0.284-0.125,0.527-0.046,0.745,0.167
			c0.172,0.167,0.311,0.333,0.263,0.603c-0.043,0.246-0.201,0.302-0.409,0.288c-0.305-0.021-0.075-0.19-0.079-0.297
			c-0.004-0.137,0.064-0.317-0.141-0.363c-0.157-0.035-0.293,0.046-0.386,0.169c-0.187,0.249-0.173,0.5,0.01,0.752
			c0.196,0.269,0.464,0.362,0.776,0.305c0.379-0.07,0.646-0.282,0.758-0.671c0.265-0.931-0.363-1.753-1.453-1.836
			c-0.504-0.039-0.955-0.161-1.332-0.495c-0.53-0.471-0.531-1.357,0.003-1.781c0.3-0.238,0.639-0.313,0.977-0.052
			c0.284,0.219,0.392,0.483,0.2,0.824c-0.068,0.122-0.091,0.305-0.291,0.241c-0.156-0.05-0.297-0.102-0.18-0.348
			c0.079-0.166-0.075-0.341-0.264-0.337c-0.231,0.004-0.198,0.222-0.223,0.382c-0.025,0.161,0.041,0.285,0.141,0.401
			c0.189,0.221,0.428,0.401,0.708,0.254c0.382-0.2,0.748-0.447,0.765-0.96C28.81,10,28.259,9.427,27.485,9.379
			c-0.588-0.037-1.173,0.175-1.762,0.012c-0.416-0.115-0.744-0.398-0.867-0.766c-0.148-0.445-0.07-0.924,0.351-1.259
			c0.413-0.328,1.073-0.137,1.181,0.34c0.04,0.18,0.002,0.375-0.142,0.448c-0.134,0.069-0.36,0.144-0.433-0.151
			c-0.02-0.079-0.099-0.24-0.261-0.157c-0.156,0.08-0.196,0.223-0.14,0.375c0.164,0.438,0.506,0.531,0.917,0.417
			c0.426-0.118,0.603-0.468,0.601-0.861c-0.002-0.487-0.217-0.906-0.689-1.111c-0.586-0.254-1.154-0.194-1.737,0.093
			c-0.835,0.411-1.37,0.287-2.015-0.292c-0.335-0.314-0.279-0.822-0.123-1.211c0.137-0.306,0.565-0.413,0.929-0.349
			c0.462,0.081,0.778,0.624,0.341,0.873c-0.438,0.25-0.125-0.676-0.544-0.507c-0.305,0.123-0.271,0.422-0.16,0.65
			c0.151,0.312,0.407,0.444,0.772,0.291c0.658-0.275,0.836-0.993,0.367-1.552c-0.504-0.601-1.501-0.603-2.24,0.03
			c-0.449,0.386-0.92,0.672-1.534,0.586c-0.752-0.105-1.231-0.917-0.913-1.544c0.134-0.264,0.374-0.4,0.662-0.418
			c0.199-0.013,0.4,0.085,0.453,0.27c0.052,0.184-0.144,0.456-0.423,0.539c-0.108,0.032-0.239,0.121-0.2,0.274
			c0.041,0.159,0.207,0.124,0.317,0.152c0.465,0.119,0.901-0.179,0.966-0.644c0.082-0.591-0.352-1.145-0.945-1.205
			c-0.703-0.071-1.264,0.149-1.635,0.782c-0.215,0.367-0.482,0.694-0.873,0.889c-0.852,0.425-1.809-0.124-1.767-1.002
			c0.016-0.34,0.206-0.542,0.486-0.68c0.231-0.114,0.447-0.067,0.646,0.094c0.147,0.12,0.2,0.276,0.156,0.449
			c-0.049,0.19-0.212,0.121-0.31,0.084c-0.207-0.076-0.515-0.026-0.409,0.302c0.066,0.208,0.301,0.332,0.578,0.224
			c0.339-0.133,0.587-0.342,0.62-0.716c0.034-0.387-0.134-0.696-0.465-0.904c-0.676-0.425-1.582-0.14-1.967,0.631
			c-0.197,0.394-0.324,0.825-0.546,1.202c-0.264,0.447-0.705,0.655-1.227,0.619c-0.435-0.03-0.748-0.27-0.92-0.669
			c-0.125-0.29-0.204-0.697,0.024-0.932c0.193-0.199,0.735-0.277,0.858-0.071c0.123,0.206-0.097,0.242-0.146,0.269
			c-0.202,0.108-0.465,0.096-0.36,0.404c0.056,0.162,0.143,0.307,0.342,0.331c0.268,0.032,0.487-0.063,0.645-0.273
			c0.345-0.463,0.064-1.156-0.503-1.261c-1.025-0.188-1.612,0.24-1.74,1.286c-0.071,0.579-0.112,1.121-0.5,1.65
			c-0.343,0.469-0.719,0.348-1.088,0.331C9.718,5.724,9.411,5.448,9.291,5.055C9.177,4.687,9.331,4.397,9.665,4.207
			c0.255-0.146,0.491-0.112,0.682,0.105c0.094,0.107,0.191,0.256,0.035,0.386c-0.093,0.078-0.25,0.137-0.332,0.016
			C9.944,4.558,9.865,4.375,9.727,4.649C9.634,4.834,9.714,5.047,9.922,5.118c0.393,0.134,0.714,0.033,0.855-0.393
			c0.173-0.524-0.151-1.038-0.698-1.129C9.165,3.441,8.417,4.195,8.525,5.177C8.563,5.511,8.678,5.836,8.704,6.17
			c0.079,1.016-0.738,1.772-1.59,1.495c-0.588-0.191-0.833-0.803-0.5-1.246c0.27-0.361,0.858-0.284,0.809,0.069
			C7.369,6.869,7.029,6.42,7.007,6.831C6.986,7.242,7.475,7.014,7.654,6.913C7.8,6.83,7.845,6.726,7.854,6.562
			c0.024-0.479-0.454-0.969-0.929-0.931C6.271,5.684,5.747,6.294,5.758,6.979c0.007,0.414,0.15,0.779,0.37,1.12
			c0.427,0.663,0.33,1.293-0.13,1.891c-0.31,0.402-0.727,0.413-1.17,0.283C4.405,10.149,4.34,9.825,4.331,9.438
			C4.322,9.081,4.509,8.933,4.813,8.905c0.42-0.04,0.329,0.256,0.128,0.425c-0.2,0.168,0.037,0.373,0.298,0.376
			c0.157,0.002,0.27-0.042,0.358-0.197C5.862,9.042,5.478,8.435,4.88,8.396c-0.917-0.061-1.535,1.015-1.098,1.913
			c0.206,0.423,0.572,0.722,0.853,1.086c0.368,0.476,0.397,0.998,0.151,1.512c-0.225,0.468-0.659,0.635-1.164,0.563
			c-0.524-0.074-0.823-0.712-0.537-1.107c0.084-0.117,0.187-0.164,0.323-0.136c0.158,0.033,0.151,0.124,0.143,0.272
			c-0.01,0.169-0.294,0.5,0.176,0.493c0.332-0.005,0.482-0.216,0.496-0.536c0.014-0.325-0.108-0.591-0.409-0.72
			c-0.347-0.148-0.695-0.131-1.009,0.118c-0.582,0.462-0.61,1.488-0.015,2.025c0.34,0.307,0.77,0.516,1.108,0.825
			c0.67,0.613,0.677,1.498,0.044,1.976c-0.283,0.214-0.611,0.306-0.947,0.149c-0.286-0.131-0.449-0.38-0.449-0.703
			c0-0.284,0.031-0.498,0.419-0.266c0.141,0.084,0.504,0.043,0.584-0.07c0.144-0.203-0.096-0.396-0.266-0.493
			c-0.488-0.282-1.216,0.105-1.3,0.667c-0.137,0.913,0.292,1.524,1.289,1.773c0.618,0.154,1.163,0.385,1.428,1.016
			c0.287,0.679-0.129,1.469-0.817,1.537c-0.418,0.041-0.735-0.139-0.81-0.57c-0.084-0.482,0.116-0.614,0.577-0.414
			c0.132,0.058,0.254-0.113,0.297-0.262c0.043-0.15-0.049-0.242-0.169-0.299c-0.397-0.189-0.749-0.078-1.034,0.216
			c-0.479,0.494-0.243,1.567,0.375,1.9c0.492,0.265,1.012,0.216,1.535,0.238c0.971,0.042,1.637,0.798,1.411,1.593
			c-0.099,0.348-0.306,0.659-0.67,0.748c-0.318,0.076-0.628-0.025-0.825-0.332c-0.124-0.193-0.198-0.434,0.001-0.568
			c0.209-0.143,0.408,0.031,0.469,0.24c0.122,0.415,0.292,0.204,0.4,0.029c0.164-0.27,0.107-0.541-0.17-0.709
			c-0.316-0.19-0.654-0.277-0.984-0.01c-0.351,0.287-0.437,0.662-0.325,1.082c0.211,0.797,0.975,1.165,1.929,0.936
			c0.326-0.078,0.638-0.23,0.982-0.212c0.533,0.03,0.991,0.206,1.244,0.716c0.194,0.391,0.159,0.779-0.082,1.14
			c-0.231,0.347-0.549,0.435-0.934,0.278c-0.318-0.129-0.427-0.363-0.397-0.701c0.021-0.232,0.162-0.193,0.306-0.195
			c0.256-0.002,0.096,0.137,0.082,0.229c-0.026,0.165-0.009,0.29,0.214,0.277c0.152-0.009,0.291,0.003,0.341-0.19
			c0.095-0.366-0.007-0.633-0.388-0.724c-0.318-0.076-0.635-0.048-0.86,0.233c-0.26,0.324-0.295,0.687-0.117,1.063
			c0.34,0.719,1.152,0.988,1.933,0.625c0.341-0.158,0.649-0.398,0.999-0.531c0.496-0.19,0.998-0.168,1.425,0.203
			c0.333,0.291,0.425,0.674,0.35,1.094c-0.104,0.58-0.792,0.848-1.216,0.484c-0.185-0.158-0.215-0.363-0.153-0.574
			c0.057-0.191,0.199-0.16,0.352-0.092c0.174,0.078,0.388,0.154,0.427-0.136c0.033-0.244-0.175-0.312-0.368-0.343
			c-0.314-0.049-0.583,0.033-0.77,0.312c-0.204,0.305-0.236,0.616-0.065,0.95c0.467,0.91,1.668,0.971,2.432,0.088
			c0.254-0.293,0.509-0.571,0.86-0.72c0.468-0.198,0.944-0.212,1.362,0.146c0.329,0.281,0.469,0.637,0.38,1.072
			c-0.068,0.336-0.291,0.512-0.608,0.549c-0.275,0.031-0.616-0.109-0.672-0.331c-0.057-0.222,0.164-0.313,0.225-0.327
			c0.207-0.045,0.445,0.425,0.575,0.119c0.089-0.209,0.004-0.386-0.136-0.514c-0.227-0.205-0.492-0.195-0.765-0.063
			c-0.312,0.15-0.412,0.439-0.415,0.73c-0.004,0.37,0.163,0.686,0.519,0.871c0.796,0.417,1.625,0.112,2.078-0.806
			c0.238-0.481,0.493-0.928,1.005-1.163c0.708-0.326,1.553,0.104,1.656,0.844c0.043,0.301-0.075,0.537-0.313,0.711
			c-0.235,0.173-0.481,0.221-0.765,0.074c-0.384-0.199-0.359-0.562-0.087-0.615c0.4-0.115,0.147,0.307,0.569,0.211
			c0.422-0.095-0.045-0.536-0.239-0.586c-0.402-0.102-0.767-0.008-0.888,0.434c-0.133,0.482,0.07,0.869,0.507,1.099
			c0.699,0.366,1.57,0.031,1.889-0.739c0.126-0.306,0.166-0.648,0.252-0.973c0.143-0.536,0.438-0.947,0.977-1.148
			c0.619-0.229,1.359,0.187,1.447,0.82c0.061,0.427-0.179,0.674-0.545,0.814c-0.237,0.092-0.569,0.01-0.588-0.174
			c-0.06-0.58,0.414-0.127,0.563-0.316c0.147-0.189-0.021-0.463-0.031-0.475c-0.344-0.361-0.615-0.139-0.839,0.184
			c-0.27,0.387-0.214,0.803,0.157,1.128c0.335,0.293,0.729,0.306,1.129,0.165c0.498-0.176,0.822-0.527,0.887-1.05
			c0.046-0.373,0.01-0.757,0.004-1.135c-0.009-0.62,0.234-1.106,0.775-1.421c0.543-0.316,1.342-0.02,1.512,0.55
			c0.104,0.351-0.033,0.622-0.292,0.837c-0.204,0.168-0.431,0.14-0.644-0.008c-0.102-0.07-0.111-0.18-0.078-0.28
			c0.034-0.106,0.108-0.109,0.176-0.021c0.216,0.28,0.369,0.141,0.438-0.096c0.074-0.255-0.022-0.471-0.322-0.501
			c-0.174-0.018-0.395,0.052-0.53,0.18c-0.138,0.128-0.482,0.782,0.099,1.166c0.35,0.231,0.703,0.272,1.077,0.102
			c0.472-0.217,0.769-0.571,0.829-1.103c0.064-0.572-0.167-1.076-0.388-1.572c-0.263-0.59,0.022-0.992,0.41-1.359
			c0.417-0.395,0.904-0.449,1.392-0.146c0.379,0.238,0.438,0.611,0.266,1.002c-0.159,0.356-0.688,0.466-0.885,0.209
			c-0.075-0.099-0.051-0.197-0.018-0.295c0.003-0.008,0.111-0.004,0.145,0.026c0.127,0.113,0.238,0.29,0.314-0.044
			c0.041-0.184,0.112-0.33-0.119-0.449c-0.229-0.115-0.435-0.188-0.597,0.064c-0.236,0.369-0.286,0.782,0.063,1.076
			c0.445,0.375,0.986,0.297,1.41-0.028c0.398-0.305,0.635-0.789,0.414-1.292c-0.186-0.422-0.355-0.854-0.674-1.232
			c-0.352-0.418-0.305-0.988-0.088-1.482c0.194-0.441,0.572-0.656,1.069-0.637c0.511,0.02,0.841,0.364,0.8,0.849
			c-0.034,0.41-0.439,0.656-0.772,0.372c-0.255-0.279,0.455-0.15,0.147-0.453c-0.097-0.096-0.252-0.216-0.355-0.197
			c-0.16,0.029-0.268,0.193-0.287,0.378c-0.043,0.396,0.078,0.704,0.467,0.866c0.506,0.209,0.913,0.034,1.214-0.372
			c0.544-0.735,0.286-1.611-0.638-2.255c-0.748-0.52-0.958-0.955-0.725-1.746c0.148-0.503,0.576-0.749,1.095-0.758
			c0.404-0.006,0.676,0.214,0.749,0.627c0.041,0.24,0.007,0.472-0.222,0.612c-0.144,0.088-0.296,0.144-0.475,0.044
			c-0.255-0.143-0.261-0.377-0.104-0.48s0.115,0.257,0.338,0.128c0.052-0.03,0.073-0.136,0.083-0.209
			c0.028-0.204-0.134-0.243-0.274-0.253c-0.092-0.006-0.189,0.062-0.284,0.096c-0.438,0.373-0.306,0.738,0.05,1.057
			c0.379,0.338,0.996,0.199,1.322-0.264C30.136,17.545,29.84,16.611,28.993,16.162z M26.92,16.202
			C26.822,22.222,21.915,27.142,15.659,27C9.795,26.867,4.966,22.029,4.951,15.941c-0.016-6.359,5.489-11.02,11.04-10.896
			C22.12,5.095,27.02,10.055,26.92,16.202z"/>
		<path fill-rule="evenodd" clip-rule="evenodd" fill="#ECECEC" d="M15.991,5.045c6.129,0.05,11.029,5.01,10.929,11.157
			C26.822,22.222,21.915,27.142,15.659,27C9.795,26.867,4.966,22.029,4.951,15.941C4.935,9.582,10.439,4.922,15.991,5.045z
			 M26.543,15.768C26.45,9.974,21.599,5.325,15.752,5.428C9.91,5.53,5.264,10.32,5.349,16.152
			c0.087,5.914,4.876,10.561,10.791,10.469C22.024,26.53,26.638,21.716,26.543,15.768z"/>
		<path fill-rule="evenodd" clip-rule="evenodd" fill="#9E3F23" d="M26.543,15.768c0.095,5.948-4.519,10.763-10.403,10.854
			c-5.915,0.092-10.704-4.555-10.791-10.469C5.264,10.32,9.91,5.53,15.752,5.428C21.599,5.325,26.45,9.974,26.543,15.768z
			 M15.98,5.742C10.335,5.713,5.69,10.3,5.665,15.926c-0.025,5.729,4.512,10.346,10.198,10.379
			c5.702,0.033,10.333-4.521,10.364-10.193C26.26,10.383,21.702,5.771,15.98,5.742z"/>
		<path fill-rule="evenodd" clip-rule="evenodd" fill="#494738" d="M15.98,5.742c5.722,0.029,10.28,4.641,10.248,10.369
			c-0.031,5.672-4.662,10.227-10.364,10.193c-5.686-0.033-10.224-4.65-10.198-10.379C5.69,10.3,10.335,5.713,15.98,5.742z"/>
		<circle fill-rule="evenodd" clip-rule="evenodd" fill="#FFFFFF" cx="15.951" cy="16.02" r="7.433"/>
		<circle fill-rule="evenodd" clip-rule="evenodd" fill="#DBA223" cx="19.442" cy="7.953" r="0.996"/>
		<circle fill-rule="evenodd" clip-rule="evenodd" fill="#DBA223" cx="24.692" cy="16.43" r="0.996"/>
		<circle fill-rule="evenodd" clip-rule="evenodd" fill="#DBA223" cx="18.272" cy="24.654" r="0.997"/>
		<circle fill-rule="evenodd" clip-rule="evenodd" fill="#DBA223" cx="8.592" cy="20.89" r="0.996"/>
		<circle fill-rule="evenodd" clip-rule="evenodd" fill="#DBA223" cx="9.446" cy="9.914" r="0.996"/>
		<path fill-rule="evenodd" clip-rule="evenodd" fill="#DBA223" d="M23.515,11.6c0.449-0.27,1.025-0.143,1.323,0.278
			c-0.004-0.167-0.049-0.335-0.141-0.489c-0.283-0.472-0.896-0.625-1.367-0.342s-0.625,0.895-0.343,1.367
			c0.014,0.022,0.029,0.043,0.044,0.064C23.023,12.132,23.196,11.792,23.515,11.6z"/>
		<path fill-rule="evenodd" clip-rule="evenodd" fill="#DBA223" d="M22.569,21.626c0.471,0.23,0.678,0.782,0.487,1.261
			c0.138-0.094,0.255-0.223,0.333-0.383c0.242-0.495,0.037-1.092-0.457-1.334s-1.091-0.037-1.332,0.457
			c-0.012,0.023-0.021,0.048-0.031,0.071C21.855,21.504,22.235,21.463,22.569,21.626z"/>
		<path fill-rule="evenodd" clip-rule="evenodd" fill="#DBA223" d="M13.038,24.275c-0.174,0.495-0.698,0.766-1.196,0.633
			c0.11,0.126,0.252,0.227,0.421,0.285c0.519,0.183,1.088-0.09,1.27-0.609c0.183-0.52-0.09-1.088-0.609-1.271
			c-0.025-0.009-0.05-0.015-0.075-0.021C13.076,23.553,13.161,23.926,13.038,24.275z"/>
		<path fill-rule="evenodd" clip-rule="evenodd" fill="#DBA223" d="M7.375,15.39c-0.522,0.047-0.985-0.317-1.071-0.825
			c-0.069,0.152-0.102,0.323-0.086,0.501c0.049,0.548,0.534,0.953,1.082,0.903c0.548-0.049,0.952-0.534,0.903-1.082
			C8.2,14.861,8.196,14.835,8.191,14.81C8.048,15.125,7.744,15.357,7.375,15.39z"/>
		<path fill-rule="evenodd" clip-rule="evenodd" fill="#DBA223" d="M13.579,7.644c-0.129-0.508,0.157-1.023,0.645-1.188
			c-0.161-0.044-0.335-0.049-0.509-0.005c-0.533,0.136-0.855,0.678-0.719,1.212c0.136,0.533,0.678,0.855,1.211,0.719
			c0.025-0.006,0.05-0.015,0.074-0.023C13.948,8.267,13.67,8.004,13.579,7.644z"/>
		<polygon fill-rule="evenodd" clip-rule="evenodd" fill="#DBA223" points="22.03,9.045 22.425,8.608 22.396,9.196 22.983,9.166 
			22.546,9.561 22.983,9.955 22.396,9.925 22.425,10.513 22.03,10.076 21.636,10.513 21.666,9.925 21.078,9.955 21.515,9.561 
			21.078,9.166 21.666,9.196 21.636,8.608 		"/>
		<polygon fill-rule="evenodd" clip-rule="evenodd" fill="#DBA223" points="24.497,13.189 24.892,12.752 24.862,13.34 25.45,13.31 
			25.013,13.704 25.45,14.099 24.862,14.069 24.892,14.657 24.497,14.22 24.103,14.657 24.134,14.069 23.546,14.099 23.981,13.704 
			23.546,13.31 24.134,13.34 24.103,12.752 		"/>
		<polygon fill-rule="evenodd" clip-rule="evenodd" fill="#DBA223" points="24.055,18.914 24.45,18.477 24.419,19.064 
			25.007,19.035 24.57,19.43 25.007,19.824 24.419,19.794 24.45,20.382 24.055,19.945 23.661,20.382 23.69,19.794 23.103,19.824 
			23.54,19.43 23.103,19.035 23.69,19.064 23.661,18.477 		"/>
		<polygon fill-rule="evenodd" clip-rule="evenodd" fill="#DBA223" points="20.86,22.932 21.255,22.494 21.225,23.082 
			21.813,23.052 21.376,23.446 21.813,23.841 21.225,23.811 21.255,24.398 20.86,23.962 20.466,24.398 20.495,23.811 19.907,23.841 
			20.345,23.446 19.907,23.052 20.495,23.082 20.466,22.494 		"/>
		<polygon fill-rule="evenodd" clip-rule="evenodd" fill="#DBA223" points="15.546,24.449 15.94,24.012 15.91,24.6 16.498,24.57 
			16.061,24.965 16.498,25.359 15.91,25.329 15.94,25.917 15.546,25.48 15.151,25.917 15.181,25.329 14.593,25.359 15.03,24.965 
			14.593,24.57 15.181,24.6 15.151,24.012 		"/>
		<polygon fill-rule="evenodd" clip-rule="evenodd" fill="#DBA223" points="7.765,11.987 8.159,11.55 8.129,12.138 8.717,12.107 
			8.28,12.502 8.717,12.896 8.129,12.867 8.159,13.455 7.765,13.018 7.37,13.455 7.4,12.867 6.812,12.896 7.249,12.502 
			6.812,12.107 7.4,12.138 7.37,11.55 		"/>
		<polygon fill-rule="evenodd" clip-rule="evenodd" fill="#DBA223" points="11.402,7.78 11.796,7.343 11.767,7.931 12.354,7.901 
			11.917,8.295 12.354,8.69 11.767,8.66 11.796,9.248 11.402,8.811 11.008,9.248 11.038,8.66 10.45,8.69 10.887,8.295 10.45,7.901 
			11.038,7.931 11.008,7.343 		"/>
		<polygon fill-rule="evenodd" clip-rule="evenodd" fill="#DBA223" points="10.517,22.615 10.911,22.178 10.881,22.766 
			11.469,22.735 11.032,23.13 11.469,23.524 10.881,23.494 10.911,24.082 10.517,23.646 10.122,24.082 10.152,23.494 9.564,23.524 
			10.001,23.13 9.564,22.735 10.152,22.766 10.122,22.178 		"/>
		<polygon fill-rule="evenodd" clip-rule="evenodd" fill="#DBA223" points="7.354,17.617 7.748,17.18 7.718,17.768 8.306,17.738 
			7.869,18.133 8.306,18.527 7.718,18.497 7.748,19.085 7.354,18.648 6.959,19.085 6.989,18.497 6.401,18.527 6.838,18.133 
			6.401,17.738 6.989,17.768 6.959,17.18 		"/>
		<polygon fill-rule="evenodd" clip-rule="evenodd" fill="#DBA223" points="16.336,6.705 16.731,6.268 16.701,6.855 17.289,6.825 
			16.853,7.22 17.289,7.614 16.701,7.584 16.731,8.172 16.336,7.735 15.942,8.172 15.972,7.584 15.384,7.614 15.821,7.22 
			15.384,6.825 15.972,6.855 15.942,6.268 		"/>
	</g>
	<g>
		<g>
			<path fill="#9E3F23" d="M15.947,10.22L15.947,10.22c3.149,0,5.751,2.537,5.802,5.655c0.025,1.578-0.551,3.062-1.62,4.178
				c-1.068,1.115-2.515,1.742-4.071,1.767l-0.094,0.001c-3.212,0-5.765-2.518-5.813-5.732c-0.046-3.178,2.507-5.81,5.692-5.867
				L15.947,10.22 M15.947,9.714c-0.037,0-0.074,0-0.112,0.001c-3.476,0.062-6.24,2.911-6.189,6.38
				c0.051,3.485,2.847,6.23,6.318,6.23c0.034,0,0.068,0,0.102-0.001c3.501-0.054,6.246-2.919,6.189-6.458
				C22.2,12.458,19.376,9.714,15.947,9.714L15.947,9.714z"/>
		</g>
	</g>
	<g>
		<g>
			<path fill="#494738" d="M15.949,11.371c2.504,0,4.574,2.018,4.613,4.499c0.021,1.253-0.438,2.433-1.287,3.322
				c-0.851,0.887-2.001,1.385-3.239,1.404h-0.076c-2.554,0-4.583-2.002-4.621-4.557c-0.037-2.529,1.994-4.623,4.527-4.667
				L15.949,11.371 M15.948,11.049c-0.029,0-0.059,0-0.088,0.001c-2.72,0.048-4.884,2.278-4.844,4.993
				c0.04,2.727,2.227,4.875,4.943,4.875c0.027,0,0.054,0,0.081,0c2.74-0.042,4.889-2.283,4.844-5.054
				C20.842,13.196,18.632,11.049,15.948,11.049L15.948,11.049z"/>
		</g>
	</g>
	<g>
		<g>
			<path fill="#494738" d="M15.948,12.526c1.878,0,3.43,1.512,3.459,3.371c0.016,0.94-0.328,1.825-0.966,2.49
				c-0.637,0.665-1.499,1.038-2.427,1.053l-0.057,0.001c-1.914,0-3.436-1.501-3.464-3.417c-0.027-1.895,1.495-3.464,3.394-3.498
				L15.948,12.526 M15.948,12.204c-0.022,0-0.044,0-0.067,0c-2.083,0.037-3.741,1.745-3.71,3.825
				c0.031,2.088,1.706,3.734,3.787,3.734c0.021,0,0.041,0,0.062-0.001c2.099-0.032,3.745-1.749,3.71-3.87
				C19.696,13.848,18.003,12.204,15.948,12.204L15.948,12.204z"/>
		</g>
	</g>
	<circle fill-rule="evenodd" clip-rule="evenodd" fill="#494738" cx="16.043" cy="11.786" r="0.442"/>
	<circle fill-rule="evenodd" clip-rule="evenodd" fill="#494738" cx="17.577" cy="12.105" r="0.441"/>
	<circle fill-rule="evenodd" clip-rule="evenodd" fill="#494738" cx="18.802" cy="12.891" r="0.441"/>
	<circle fill-rule="evenodd" clip-rule="evenodd" fill="#494738" cx="19.653" cy="13.977" r="0.442"/>
	<circle fill-rule="evenodd" clip-rule="evenodd" fill="#494738" cx="20.083" cy="15.224" r="0.441"/>
	<circle fill-rule="evenodd" clip-rule="evenodd" fill="#494738" cx="20.106" cy="16.531" r="0.442"/>
	<circle fill-rule="evenodd" clip-rule="evenodd" fill="#494738" cx="19.734" cy="17.816" r="0.442"/>
	<circle fill-rule="evenodd" clip-rule="evenodd" fill="#494738" cx="18.987" cy="18.92" r="0.442"/>
	<circle fill-rule="evenodd" clip-rule="evenodd" fill="#494738" cx="17.947" cy="19.705" r="0.442"/>
	<circle fill-rule="evenodd" clip-rule="evenodd" fill="#494738" cx="16.705" cy="20.109" r="0.442"/>
	<circle fill-rule="evenodd" clip-rule="evenodd" fill="#494738" cx="15.29" cy="20.145" r="0.442"/>
	<circle fill-rule="evenodd" clip-rule="evenodd" fill="#494738" cx="13.973" cy="19.702" r="0.442"/>
	<circle fill-rule="evenodd" clip-rule="evenodd" fill="#494738" cx="12.865" cy="18.852" r="0.442"/>
	<circle fill-rule="evenodd" clip-rule="evenodd" fill="#494738" cx="12.143" cy="17.779" r="0.442"/>
	<circle fill-rule="evenodd" clip-rule="evenodd" fill="#494738" cx="11.773" cy="16.564" r="0.442"/>
	<circle fill-rule="evenodd" clip-rule="evenodd" fill="#494738" cx="11.808" cy="15.172" r="0.442"/>
	<circle fill-rule="evenodd" clip-rule="evenodd" fill="#494738" cx="12.32" cy="13.87" r="0.442"/>
	<circle fill-rule="evenodd" clip-rule="evenodd" fill="#494738" cx="13.171" cy="12.822" r="0.442"/>
	<circle fill-rule="evenodd" clip-rule="evenodd" fill="#494738" cx="14.424" cy="12.051" r="0.442"/>
	<circle fill-rule="evenodd" clip-rule="evenodd" fill="#9E3F23" cx="15.947" cy="15.979" r="3.533"/>
	<g>
		
			<polygon fill-rule="evenodd" clip-rule="evenodd" fill="#DBA223" stroke="#FFFFFF" stroke-width="0.2731" stroke-miterlimit="10" points="
			16.049,14.833 16.9,13.89 16.836,15.159 18.104,15.094 17.162,15.945 18.104,16.797 16.836,16.732 16.9,18.002 16.049,17.059 
			15.197,18.002 15.262,16.732 13.993,16.797 14.936,15.945 13.993,15.094 15.262,15.159 15.197,13.89 		"/>
		<circle fill-rule="evenodd" clip-rule="evenodd" fill="#494738" cx="16.049" cy="15.945" r="0.498"/>
	</g>
</g>
</svg>
