<?xml version="1.0" encoding="utf-8"?>
<!-- Generator: Adobe Illustrator 16.0.0, SVG Export Plug-In . SVG Version: 6.00 Build 0)  -->
<!DOCTYPE svg PUBLIC "-//W3C//DTD SVG 1.1//EN" "http://www.w3.org/Graphics/SVG/1.1/DTD/svg11.dtd">
<svg version="1.1" id="Capa_1" xmlns="http://www.w3.org/2000/svg" xmlns:xlink="http://www.w3.org/1999/xlink" x="0px" y="0px"
	 width="841.89px" height="295px" viewBox="0 0 841.89 295" enable-background="new 0 0 841.89 295" xml:space="preserve">
<g>
	<g>
		<g>
			<path fill="#494738" d="M301.426,119.992v48.575h-7.674v-21.415h-24.317v21.415h-7.606v-48.575h7.606v20.32h24.317v-20.32
				H301.426z"/>
			<path fill="#494738" d="M332.126,168.91c-3.396,0-6.485-0.695-9.271-2.085c-2.784-1.396-5.185-3.238-7.199-5.543
				c-2.015-2.302-3.565-4.938-4.652-7.901c-1.087-2.965-1.63-6-1.63-9.101c0-3.238,0.577-6.338,1.731-9.305
				c1.154-2.963,2.751-5.586,4.79-7.867c2.037-2.282,4.46-4.096,7.268-5.444c2.809-1.342,5.862-2.012,9.167-2.012
				c3.396,0,6.488,0.714,9.272,2.153c2.786,1.436,5.175,3.316,7.167,5.646c1.993,2.323,3.531,4.958,4.619,7.9
				c1.085,2.943,1.629,5.942,1.629,8.999c0,3.237-0.577,6.34-1.731,9.305c-1.153,2.965-2.75,5.575-4.79,7.83
				c-2.038,2.258-4.448,4.062-7.234,5.405C338.479,168.239,335.433,168.91,332.126,168.91z M317.115,144.279
				c0,2.283,0.35,4.493,1.055,6.637c0.698,2.145,1.708,4.038,3.021,5.677c1.313,1.646,2.899,2.956,4.756,3.938
				c1.857,0.979,3.938,1.467,6.249,1.467c2.354,0,4.47-0.514,6.351-1.536c1.877-1.03,3.464-2.382,4.754-4.073
				c1.292-1.687,2.275-3.582,2.955-5.68c0.68-2.097,1.021-4.24,1.021-6.431c0-2.321-0.364-4.549-1.09-6.667
				c-0.723-2.125-1.741-3.995-3.053-5.615c-1.314-1.615-2.898-2.92-4.755-3.9c-1.857-0.979-3.918-1.47-6.181-1.47
				c-2.355,0-4.473,0.514-6.351,1.536c-1.88,1.032-3.462,2.365-4.755,4.007c-1.291,1.639-2.275,3.521-2.955,5.645
				C317.455,139.937,317.115,142.091,317.115,144.279z"/>
			<path fill="#494738" d="M391.354,131.417c-0.452-0.502-1.11-1.035-1.97-1.606c-0.86-0.574-1.867-1.105-3.021-1.613
				c-1.155-0.496-2.436-0.907-3.839-1.228c-1.404-0.317-2.898-0.479-4.483-0.479c-2.988,0-5.251,0.59-6.792,1.781
				c-1.539,1.181-2.308,2.85-2.308,4.995c0,1.184,0.247,2.152,0.75,2.905c0.494,0.754,1.241,1.404,2.239,1.952
				c0.994,0.545,2.241,1.037,3.734,1.468c1.496,0.436,3.239,0.904,5.232,1.405c2.353,0.638,4.516,1.3,6.483,1.982
				c1.972,0.685,3.646,1.539,5.027,2.567c1.381,1.024,2.458,2.289,3.228,3.793c0.769,1.505,1.156,3.376,1.156,5.613
				c0,2.553-0.478,4.721-1.426,6.498c-0.953,1.778-2.232,3.228-3.839,4.345c-1.608,1.12-3.475,1.938-5.604,2.46
				c-2.127,0.526-4.392,0.786-6.791,0.786c-3.668,0-7.225-0.555-10.664-1.672c-3.441-1.12-6.545-2.747-9.308-4.893l3.532-6.568
				c0.588,0.594,1.426,1.254,2.513,1.986c1.086,0.729,2.368,1.402,3.839,2.021c1.471,0.614,3.091,1.136,4.856,1.567
				c1.765,0.431,3.599,0.65,5.503,0.65c2.895,0,5.149-0.532,6.757-1.604c1.606-1.073,2.411-2.634,2.411-4.688
				c0-1.233-0.292-2.258-0.881-3.082c-0.591-0.819-1.452-1.535-2.582-2.153c-1.132-0.615-2.512-1.163-4.143-1.643
				c-1.631-0.479-3.489-0.993-5.57-1.539c-2.401-0.636-4.496-1.309-6.283-2.014c-1.79-0.712-3.272-1.565-4.45-2.572
				c-1.178-0.999-2.071-2.177-2.683-3.521c-0.611-1.343-0.914-2.974-0.914-4.891c0-2.368,0.44-4.482,1.323-6.331
				c0.881-1.846,2.104-3.396,3.667-4.648c1.565-1.257,3.407-2.203,5.536-2.843c2.127-0.637,4.414-0.954,6.862-0.954
				c3.351,0,6.396,0.52,9.133,1.573c2.739,1.048,5.151,2.348,7.235,3.896L391.354,131.417z"/>
			<path fill="#494738" d="M439.516,126.764h-16.031v41.803h-7.607v-41.803h-16.098v-6.772h39.736V126.764z"/>
			<path fill="#494738" d="M479.181,161.797v6.77h-33.079v-48.575h32.47v6.772h-24.86v13.82h21.53v6.367h-21.53v14.846H479.181z"/>
			<path fill="#494738" d="M487.33,168.567v-48.575h20.988c2.176,0,4.182,0.458,6.015,1.369c1.831,0.912,3.406,2.11,4.721,3.589
				c1.313,1.483,2.342,3.17,3.091,5.064c0.745,1.895,1.119,3.824,1.119,5.781c0,1.643-0.229,3.212-0.68,4.719
				c-0.453,1.507-1.084,2.897-1.902,4.172c-0.816,1.281-1.811,2.388-2.989,3.32c-1.179,0.937-2.466,1.633-3.871,2.086l11.479,18.473
				h-8.625l-10.596-16.902h-11.138v16.902H487.33z M494.941,144.894h13.311c1.086,0,2.071-0.238,2.956-0.717
				c0.881-0.481,1.641-1.138,2.273-1.984c0.635-0.844,1.134-1.812,1.497-2.909c0.359-1.091,0.541-2.256,0.541-3.489
				c0-1.234-0.214-2.394-0.644-3.489c-0.431-1.094-0.998-2.054-1.699-2.874c-0.703-0.82-1.517-1.472-2.445-1.948
				c-0.929-0.482-1.891-0.721-2.888-0.721h-12.902V144.894z"/>
			<path fill="#494738" d="M532.773,168.567v-48.508h7.606v48.508H532.773z"/>
			<path fill="#494738" d="M546.289,168.567l19.424-48.575h6.251l19.357,48.575h-8.082l-5.161-13.207h-18.613l-5.025,13.207H546.289
				z M568.837,128.542l-8.014,21.143h15.758L568.837,128.542z"/>
			<path fill="#494738" d="M604.636,168.567l19.425-48.575h6.25l19.355,48.575h-8.081l-5.16-13.207h-18.613l-5.025,13.207H604.636z
				 M627.186,128.542l-8.015,21.143h15.758L627.186,128.542z"/>
			<path fill="#494738" d="M655.511,168.567v-48.508h7.606v48.508H655.511z"/>
			<path fill="#494738" d="M673.983,168.567v-48.508h7.609v25.315l22.957-25.383h8.149l-19.02,21.481l20.104,27.094h-8.216
				l-16.438-22.714l-7.537,7.938v14.776H673.983z"/>
			<path fill="#494738" d="M751.757,161.797v6.77h-33.08v-48.575h32.466v6.772h-24.858v13.82h21.53v6.367h-21.53v14.846H751.757z"/>
			<path fill="#494738" d="M767.513,134.358v34.208h-7.606v-48.575h5.978l27.579,35.028v-34.961h7.672v48.508h-6.318
				L767.513,134.358z"/>
		</g>
	</g>
	
		<line fill="none" stroke="#DBA223" stroke-width="7.0103" stroke-linecap="square" stroke-miterlimit="10" x1="256.958" y1="188.971" x2="806.64" y2="188.971"/>
	<g>
		<g>
			<path fill-rule="evenodd" clip-rule="evenodd" fill="#494738" d="M218.077,151.388c-0.112,53.45-42.861,95.49-97.022,95.409
				c-52.684-0.076-94.819-43.254-94.279-97.439c0.513-51.439,42.251-94.229,96.486-93.947
				C175.736,55.682,218.188,98.552,218.077,151.388z"/>
			<path fill-rule="evenodd" clip-rule="evenodd" fill="#DBA223" d="M205.876,152.009c-2.017-1.069-4.34-1.703-6.102-3.078
				c-2.611-2.038-5.09-4.441-4.488-8.322c0.494-3.171,2.877-4.609,5.493-5.766c1.818-0.803,3.375-0.29,4.767,1.069
				c1.101,1.074,1.988,2.136,1.683,3.858c-0.281,1.576-1.289,1.931-2.621,1.841c-1.951-0.13-0.485-1.216-0.505-1.898
				c-0.028-0.878,0.417-2.028-0.905-2.321c-1.001-0.224-1.871,0.292-2.463,1.08c-1.197,1.595-1.109,3.205,0.063,4.816
				c1.252,1.721,2.965,2.318,4.962,1.951c2.431-0.444,4.141-1.802,4.85-4.291c1.697-5.959-2.322-11.217-9.293-11.751
				c-3.221-0.248-6.113-1.029-8.524-3.166c-3.395-3.012-3.404-8.685,0.02-11.397c1.921-1.521,4.087-1.999,6.248-0.332
				c1.819,1.401,2.51,3.094,1.282,5.273c-0.439,0.78-0.582,1.95-1.866,1.542c-0.998-0.317-1.895-0.651-1.146-2.222
				c0.506-1.06-0.482-2.181-1.691-2.161c-1.477,0.026-1.267,1.42-1.427,2.446c-0.161,1.033,0.264,1.822,0.903,2.568
				c1.213,1.413,2.734,2.569,4.532,1.629c2.443-1.278,4.787-2.858,4.896-6.145c0.155-4.643-3.365-8.311-8.317-8.621
				c-3.759-0.237-7.501,1.12-11.271,0.078c-2.658-0.734-4.757-2.55-5.543-4.899c-0.953-2.848-0.455-5.914,2.24-8.057
				c2.643-2.099,6.867-0.879,7.551,2.175c0.26,1.154,0.018,2.397-0.903,2.866c-0.857,0.438-2.306,0.919-2.768-0.968
				c-0.122-0.503-0.631-1.539-1.669-1.004c-1,0.514-1.26,1.426-0.893,2.401c1.054,2.802,3.24,3.398,5.868,2.667
				c2.724-0.757,3.851-2.993,3.839-5.508c-0.013-3.115-1.383-5.798-4.407-7.111c-3.752-1.626-7.386-1.242-11.117,0.595
				c-5.344,2.63-8.769,1.837-12.895-1.866c-2.139-2.012-1.785-5.264-0.789-7.748c0.876-1.956,3.621-2.645,5.946-2.236
				c2.952,0.521,4.983,3.99,2.182,5.588c-2.797,1.599-0.801-4.326-3.481-3.249c-1.95,0.785-1.729,2.705-1.024,4.163
				c0.964,1.995,2.601,2.842,4.944,1.863c4.212-1.764,5.344-6.355,2.347-9.932c-3.224-3.845-9.603-3.86-14.33,0.189
				c-2.88,2.467-5.888,4.301-9.821,3.751c-4.812-0.672-7.875-5.868-5.841-9.881c0.855-1.69,2.392-2.56,4.24-2.678
				c1.268-0.082,2.559,0.548,2.894,1.726c0.334,1.179-0.918,2.917-2.705,3.448c-0.691,0.205-1.526,0.774-1.276,1.757
				c0.256,1.014,1.318,0.791,2.027,0.973c2.975,0.762,5.766-1.142,6.18-4.115c0.525-3.783-2.249-7.324-6.051-7.712
				c-4.5-0.457-8.086,0.952-10.457,5.004c-1.375,2.351-3.088,4.44-5.588,5.689c-5.446,2.724-11.569-0.788-11.302-6.414
				c0.103-2.177,1.315-3.47,3.109-4.35c1.479-0.725,2.862-0.429,4.135,0.604c0.945,0.767,1.277,1.771,0.997,2.873
				c-0.309,1.215-1.355,0.771-1.981,0.541c-1.321-0.486-3.29-0.167-2.618,1.932c0.426,1.33,1.929,2.126,3.7,1.431
				c2.17-0.851,3.754-2.19,3.968-4.579c0.22-2.477-0.858-4.451-2.973-5.783c-4.321-2.719-10.118-0.895-12.583,4.041
				c-1.258,2.517-2.071,5.279-3.495,7.688c-1.69,2.861-4.509,4.193-7.85,3.962c-2.778-0.191-4.783-1.725-5.886-4.283
				c-0.798-1.851-1.304-4.456,0.157-5.958c1.237-1.273,4.706-1.772,5.491-0.456c0.784,1.315-0.622,1.551-0.937,1.721
				c-1.29,0.689-2.972,0.612-2.3,2.583c0.353,1.038,0.909,1.966,2.188,2.118c1.716,0.207,3.119-0.399,4.123-1.749
				c2.208-2.962,0.415-7.396-3.217-8.065c-6.56-1.207-10.314,1.536-11.134,8.229c-0.453,3.705-0.715,7.171-3.195,10.56
				c-2.195,3.001-4.6,2.226-6.961,2.116c-2.542-0.116-4.504-1.879-5.277-4.397c-0.724-2.355,0.26-4.206,2.394-5.428
				c1.633-0.934,3.142-0.712,4.361,0.672c0.602,0.687,1.222,1.639,0.223,2.471c-0.598,0.498-1.604,0.877-2.125,0.103
				c-0.669-0.993-1.177-2.167-2.061-0.41c-0.594,1.18-0.082,2.542,1.247,2.996c2.517,0.861,4.573,0.214,5.473-2.511
				c1.106-3.353-0.97-6.64-4.465-7.229c-5.847-0.986-10.638,3.834-9.943,10.12c0.236,2.135,0.98,4.22,1.144,6.354
				c0.503,6.499-4.724,11.338-10.176,9.566c-3.76-1.223-5.333-5.137-3.203-7.976c1.73-2.307,5.492-1.815,5.178,0.44
				c-0.339,2.438-2.519-0.432-2.654,2.199c-0.135,2.63,2.991,1.171,4.139,0.522c0.934-0.531,1.222-1.195,1.275-2.246
				c0.153-3.064-2.907-6.198-5.944-5.954c-4.183,0.335-7.536,4.239-7.462,8.621c0.045,2.646,0.961,4.983,2.366,7.167
				c2.733,4.244,2.112,8.273-0.832,12.1c-1.982,2.575-4.653,2.639-7.487,1.811c-2.708-0.791-3.124-2.868-3.183-5.341
				c-0.055-2.282,1.143-3.229,3.083-3.412c2.691-0.252,2.104,1.641,0.823,2.721c-1.282,1.081,0.237,2.384,1.906,2.405
				c1.006,0.014,1.726-0.271,2.289-1.26c1.7-2.985-0.759-6.872-4.585-7.122c-5.872-0.386-9.822,6.496-7.024,12.24
				c1.319,2.708,3.659,4.619,5.458,6.952c2.354,3.047,2.543,6.384,0.964,9.673c-1.436,2.993-4.214,4.063-7.447,3.607
				c-3.356-0.473-5.264-4.559-3.434-7.083c0.541-0.748,1.193-1.05,2.068-0.868c1.013,0.21,0.965,0.792,0.911,1.741
				c-0.062,1.082-1.882,3.194,1.13,3.153c2.121-0.03,3.08-1.384,3.17-3.426c0.09-2.081-0.693-3.785-2.615-4.608
				c-2.218-0.949-4.448-0.837-6.457,0.757c-3.727,2.955-3.902,9.523-0.097,12.959c2.178,1.966,4.925,3.304,7.09,5.281
				c4.29,3.922,4.332,9.581,0.283,12.644c-1.81,1.368-3.908,1.954-6.06,0.959c-1.829-0.845-2.873-2.434-2.87-4.5
				c0.003-1.822,0.202-3.191,2.685-1.701c0.901,0.539,3.223,0.271,3.738-0.452c0.922-1.295-0.614-2.53-1.699-3.153
				c-3.122-1.8-7.781,0.671-8.319,4.262c-0.876,5.846,1.865,9.758,8.247,11.351c3.954,0.99,7.437,2.466,9.137,6.496
				c1.833,4.344-0.828,9.403-5.227,9.837c-2.676,0.264-4.703-0.884-5.184-3.647c-0.537-3.091,0.741-3.932,3.69-2.652
				c0.847,0.369,1.623-0.72,1.898-1.676c0.275-0.962-0.313-1.543-1.082-1.91c-2.54-1.214-4.793-0.499-6.614,1.381
				c-3.069,3.162-1.559,10.029,2.397,12.161c3.15,1.696,6.479,1.379,9.822,1.523c6.215,0.268,10.478,5.11,9.028,10.192
				c-0.634,2.229-1.958,4.217-4.288,4.782c-2.036,0.496-4.019-0.16-5.279-2.118c-0.794-1.235-1.269-2.773,0.007-3.64
				c1.336-0.909,2.608,0.2,3.002,1.539c0.778,2.655,1.872,1.307,2.557,0.184c1.049-1.718,0.689-3.46-1.09-4.531
				c-2.025-1.22-4.186-1.782-6.293-0.063c-2.249,1.833-2.794,4.238-2.083,6.918c1.354,5.1,6.241,7.458,12.341,5.988
				c2.087-0.501,4.079-1.478,6.286-1.356c3.409,0.191,6.34,1.321,7.961,4.585c1.239,2.498,1.019,4.978-0.525,7.287
				c-1.479,2.216-3.513,2.78-5.978,1.784c-2.033-0.823-2.73-2.324-2.541-4.488c0.13-1.489,1.031-1.238,1.955-1.247
				c1.638-0.013,0.616,0.873,0.522,1.465c-0.166,1.059-0.057,1.855,1.371,1.773c0.973-0.054,1.86,0.017,2.182-1.216
				c0.612-2.345-0.045-4.049-2.483-4.632c-2.034-0.488-4.065-0.309-5.502,1.491c-1.662,2.081-1.885,4.395-0.748,6.803
				c2.173,4.598,7.373,6.325,12.367,4c2.187-1.018,4.155-2.551,6.392-3.406c3.171-1.215,6.383-1.074,9.116,1.306
				c2.129,1.855,2.72,4.311,2.241,6.992c-0.665,3.715-5.067,5.425-7.785,3.103c-1.181-1.009-1.375-2.329-0.979-3.678
				c0.36-1.224,1.276-1.017,2.25-0.582c1.114,0.5,2.485,0.985,2.732-0.871c0.209-1.56-1.119-1.997-2.357-2.19
				c-2.01-0.315-3.732,0.209-4.925,1.989c-1.307,1.95-1.514,3.942-0.417,6.081c2.99,5.826,10.675,6.21,15.56,0.565
				c1.623-1.877,3.256-3.657,5.501-4.608c2.993-1.268,6.043-1.36,8.714,0.931c2.103,1.802,2.998,4.071,2.432,6.86
				c-0.438,2.154-1.86,3.277-3.893,3.512c-1.757,0.2-3.942-0.702-4.302-2.115c-0.36-1.416,1.049-2.011,1.439-2.095
				c1.32-0.286,2.844,2.719,3.681,0.761c0.571-1.338,0.026-2.466-0.873-3.282c-1.454-1.317-3.146-1.249-4.893-0.406
				c-1.993,0.963-2.635,2.816-2.654,4.675c-0.025,2.37,1.041,4.385,3.323,5.58c5.092,2.663,10.396,0.715,13.293-5.158
				c1.521-3.084,3.154-5.939,6.429-7.443c4.53-2.083,9.93,0.667,10.598,5.403c0.27,1.917-0.484,3.432-1.998,4.543
				c-1.51,1.106-3.084,1.409-4.896,0.472c-2.454-1.269-2.293-3.589-0.558-3.929c2.564-0.744,0.945,1.956,3.643,1.348
				c2.699-0.606-0.284-3.43-1.532-3.748c-2.569-0.652-4.899-0.048-5.676,2.77c-0.852,3.089,0.451,5.565,3.245,7.032
				c4.472,2.346,10.044,0.2,12.077-4.727c0.811-1.959,1.063-4.148,1.614-6.223c0.913-3.436,2.797-6.066,6.251-7.349
				c3.959-1.473,8.7,1.191,9.264,5.249c0.379,2.728-1.149,4.306-3.491,5.208c-1.52,0.585-3.644,0.065-3.766-1.116
				c-0.379-3.708,2.658-0.806,3.603-2.021c0.944-1.214-0.135-2.962-0.203-3.035c-2.2-2.314-3.934-0.89-5.366,1.171
				c-1.724,2.475-1.366,5.142,1.006,7.22c2.145,1.875,4.66,1.954,7.226,1.051c3.182-1.119,5.259-3.369,5.671-6.715
				c0.294-2.384,0.065-4.836,0.03-7.257c-0.061-3.974,1.497-7.078,4.954-9.09c3.479-2.026,8.587-0.126,9.673,3.515
				c0.667,2.237-0.214,3.981-1.866,5.352c-1.303,1.082-2.756,0.895-4.115-0.046c-0.649-0.451-0.712-1.147-0.504-1.796
				c0.22-0.676,0.694-0.698,1.131-0.13c1.375,1.796,2.357,0.896,2.795-0.616c0.471-1.627-0.146-3.004-2.065-3.2
				c-1.105-0.116-2.517,0.331-3.391,1.148c-0.876,0.816-3.086,5.004,0.635,7.463c2.232,1.477,4.497,1.743,6.891,0.646
				c3.019-1.383,4.914-3.654,5.301-7.052c0.416-3.661-1.064-6.885-2.478-10.062c-1.677-3.771,0.143-6.352,2.624-8.698
				c2.666-2.519,5.786-2.877,8.904-0.933c2.426,1.518,2.805,3.908,1.699,6.403c-1.016,2.285-4.402,2.983-5.664,1.337
				c-0.478-0.625-0.319-1.261-0.107-1.888c0.016-0.05,0.713-0.017,0.923,0.172c0.816,0.727,1.526,1.858,2.009-0.282
				c0.266-1.169,0.72-2.107-0.764-2.867c-1.456-0.745-2.777-1.204-3.815,0.411c-1.512,2.355-1.827,5.001,0.404,6.882
				c2.848,2.401,6.313,1.905,9.025-0.179c2.546-1.953,4.058-5.049,2.648-8.265c-1.186-2.701-2.273-5.468-4.313-7.89
				c-2.249-2.672-1.944-6.318-0.557-9.484c1.24-2.82,3.656-4.195,6.839-4.074c3.271,0.126,5.383,2.33,5.119,5.429
				c-0.22,2.623-2.814,4.199-4.945,2.38c-1.626-1.787,2.914-0.958,0.944-2.897c-0.616-0.61-1.606-1.383-2.278-1.263
				c-1.023,0.183-1.706,1.241-1.834,2.418c-0.275,2.528,0.501,4.505,2.988,5.537c3.235,1.345,5.843,0.225,7.769-2.376
				c3.483-4.704,1.829-10.309-4.084-14.427c-4.783-3.329-6.127-6.109-4.634-11.171c0.95-3.22,3.686-4.795,7.003-4.849
				c2.589-0.043,4.325,1.366,4.79,4.013c0.271,1.537,0.049,3.014-1.413,3.913c-0.92,0.563-1.897,0.918-3.038,0.279
				c-1.632-0.914-1.673-2.411-0.669-3.071c1.003-0.661,0.742,1.642,2.162,0.818c0.331-0.191,0.469-0.864,0.533-1.336
				c0.176-1.306-0.86-1.561-1.753-1.62c-0.589-0.04-1.212,0.393-1.821,0.616c-2.809,2.388-1.958,4.721,0.321,6.758
				c2.421,2.159,6.375,1.277,8.456-1.687C213.191,160.864,211.294,154.886,205.876,152.009z M192.611,152.269
				c-0.625,38.516-32.025,69.994-72.051,69.088c-37.519-0.85-68.419-31.803-68.517-70.755c-0.101-40.695,35.12-70.513,70.641-69.726
				C161.896,81.202,193.25,112.938,192.611,152.269z"/>
			<path fill-rule="evenodd" clip-rule="evenodd" fill="#ECECEC" d="M122.685,80.876c39.211,0.325,70.565,32.061,69.927,71.393
				c-0.625,38.516-32.025,69.994-72.051,69.088c-37.519-0.85-68.419-31.803-68.517-70.755
				C51.942,109.907,87.164,80.09,122.685,80.876z M190.199,149.485c-0.594-37.068-31.636-66.815-69.04-66.159
				c-37.382,0.657-67.112,31.304-66.564,68.619c0.556,37.842,31.199,67.574,69.041,66.989
				C161.283,218.353,190.809,187.548,190.199,149.485z"/>
			<path fill-rule="evenodd" clip-rule="evenodd" fill="#9E3F23" d="M190.199,149.485c0.61,38.063-28.916,68.868-66.563,69.45
				c-37.842,0.584-68.485-29.147-69.041-66.989c-0.548-37.315,29.182-67.962,66.564-68.619
				C158.563,82.67,189.604,112.417,190.199,149.485z M122.614,85.34c-36.116-0.185-65.841,29.16-65.999,65.157
				c-0.163,36.652,28.873,66.201,65.254,66.411c36.478,0.212,66.112-28.932,66.314-65.217
				C188.387,115.038,159.227,85.528,122.614,85.34z"/>
			<path fill-rule="evenodd" clip-rule="evenodd" fill="#494738" d="M122.614,85.34c36.612,0.188,65.773,29.697,65.57,66.351
				c-0.203,36.285-29.837,65.429-66.314,65.217c-36.381-0.209-65.417-29.759-65.254-66.411
				C56.773,114.5,86.498,85.156,122.614,85.34z"/>
			<circle fill-rule="evenodd" clip-rule="evenodd" fill="#FFFFFF" cx="122.425" cy="151.104" r="47.559"/>
			<circle fill-rule="evenodd" clip-rule="evenodd" fill="#DBA223" cx="144.764" cy="99.482" r="6.375"/>
			<circle fill-rule="evenodd" clip-rule="evenodd" fill="#DBA223" cx="178.36" cy="153.723" r="6.375"/>
			<circle fill-rule="evenodd" clip-rule="evenodd" fill="#DBA223" cx="137.276" cy="206.345" r="6.375"/>
			<circle fill-rule="evenodd" clip-rule="evenodd" fill="#DBA223" cx="75.344" cy="182.261" r="6.375"/>
			<circle fill-rule="evenodd" clip-rule="evenodd" fill="#DBA223" cx="80.809" cy="112.031" r="6.376"/>
			<path fill-rule="evenodd" clip-rule="evenodd" fill="#DBA223" d="M170.823,122.822c2.874-1.725,6.56-0.914,8.468,1.776
				c-0.025-1.069-0.313-2.146-0.902-3.127c-1.811-3.019-5.727-4.001-8.744-2.188c-3.021,1.81-4.001,5.726-2.19,8.747
				c0.086,0.143,0.181,0.278,0.278,0.411C167.679,126.226,168.784,124.045,170.823,122.822z"/>
			<path fill-rule="evenodd" clip-rule="evenodd" fill="#DBA223" d="M164.772,186.972c3.012,1.476,4.336,5.005,3.119,8.071
				c0.884-0.602,1.629-1.431,2.133-2.458c1.548-3.164,0.24-6.982-2.924-8.529c-3.161-1.547-6.98-0.24-8.528,2.923
				c-0.073,0.151-0.134,0.305-0.196,0.455C160.208,186.188,162.639,185.928,164.772,186.972z"/>
			<path fill-rule="evenodd" clip-rule="evenodd" fill="#DBA223" d="M103.792,203.925c-1.111,3.167-4.464,4.896-7.65,4.044
				c0.701,0.809,1.611,1.452,2.691,1.829c3.322,1.169,6.962-0.577,8.128-3.9c1.168-3.321-0.579-6.961-3.901-8.127
				c-0.158-0.055-0.319-0.097-0.476-0.141C104.037,199.303,104.58,201.687,103.792,203.925z"/>
			<path fill-rule="evenodd" clip-rule="evenodd" fill="#DBA223" d="M67.554,147.073c-3.341,0.304-6.303-2.03-6.854-5.282
				c-0.443,0.972-0.65,2.068-0.548,3.208c0.316,3.506,3.416,6.093,6.922,5.775c3.508-0.315,6.093-3.414,5.776-6.922
				c-0.014-0.167-0.041-0.33-0.069-0.491C71.863,145.376,69.918,146.859,67.554,147.073z"/>
			<path fill-rule="evenodd" clip-rule="evenodd" fill="#DBA223" d="M107.253,97.508c-0.828-3.251,1.005-6.545,4.13-7.604
				c-1.032-0.285-2.146-0.314-3.256-0.033c-3.412,0.869-5.475,4.339-4.603,7.753c0.868,3.412,4.337,5.473,7.751,4.602
				c0.162-0.041,0.318-0.093,0.474-0.146C109.613,101.494,107.839,99.81,107.253,97.508z"/>
			<polygon fill-rule="evenodd" clip-rule="evenodd" fill="#DBA223" points="161.327,106.474 163.852,103.678 163.659,107.44 
				167.42,107.247 164.625,109.772 167.42,112.296 163.659,112.104 163.852,115.865 161.327,113.07 158.803,115.865 
				158.994,112.104 155.232,112.296 158.028,109.772 155.232,107.247 158.994,107.44 158.803,103.678 			"/>
			<polygon fill-rule="evenodd" clip-rule="evenodd" fill="#DBA223" points="177.113,132.987 179.638,130.191 179.446,133.953 
				183.207,133.759 180.412,136.285 183.207,138.808 179.446,138.617 179.638,142.379 177.113,139.583 174.59,142.379 
				174.78,138.617 171.019,138.808 173.814,136.285 171.019,133.759 174.78,133.953 174.59,130.191 			"/>
			<polygon fill-rule="evenodd" clip-rule="evenodd" fill="#DBA223" points="174.279,169.619 176.804,166.823 176.611,170.585 
				180.373,170.391 177.578,172.917 180.373,175.441 176.611,175.249 176.804,179.011 174.279,176.215 171.755,179.011 
				171.947,175.249 168.186,175.441 170.981,172.917 168.186,170.391 171.947,170.585 171.755,166.823 			"/>
			<polygon fill-rule="evenodd" clip-rule="evenodd" fill="#DBA223" points="153.838,195.323 156.364,192.527 156.17,196.289 
				159.932,196.095 157.137,198.62 159.932,201.144 156.17,200.953 156.364,204.715 153.838,201.918 151.314,204.715 
				151.505,200.953 147.744,201.144 150.54,198.62 147.744,196.095 151.505,196.289 151.314,192.527 			"/>
			<polygon fill-rule="evenodd" clip-rule="evenodd" fill="#DBA223" points="119.837,205.037 122.361,202.241 122.17,206.003 
				125.931,205.809 123.135,208.334 125.931,210.858 122.17,210.667 122.361,214.429 119.837,211.633 117.313,214.429 
				117.505,210.667 113.742,210.858 116.539,208.334 113.742,205.809 117.505,206.003 117.313,202.241 			"/>
			<polygon fill-rule="evenodd" clip-rule="evenodd" fill="#DBA223" points="70.05,125.295 72.574,122.5 72.382,126.262 
				76.144,126.068 73.348,128.594 76.144,131.118 72.382,130.926 72.574,134.688 70.05,131.892 67.525,134.688 67.717,130.926 
				63.955,131.118 66.751,128.594 63.955,126.068 67.717,126.262 67.525,122.5 			"/>
			<polygon fill-rule="evenodd" clip-rule="evenodd" fill="#DBA223" points="93.325,98.378 95.848,95.583 95.656,99.344 
				99.418,99.151 96.623,101.676 99.418,104.2 95.656,104.008 95.848,107.769 93.325,104.975 90.8,107.769 90.992,104.008 
				87.23,104.2 90.026,101.676 87.23,99.151 90.992,99.344 90.8,95.583 			"/>
			<polygon fill-rule="evenodd" clip-rule="evenodd" fill="#DBA223" points="87.657,193.298 90.182,190.502 89.989,194.264 
				93.752,194.072 90.956,196.596 93.752,199.12 89.989,198.93 90.182,202.691 87.657,199.894 85.133,202.691 85.325,198.93 
				81.563,199.12 84.359,196.596 81.563,194.072 85.325,194.264 85.133,190.502 			"/>
			<polygon fill-rule="evenodd" clip-rule="evenodd" fill="#DBA223" points="67.419,161.32 69.943,158.525 69.751,162.288 
				73.513,162.094 70.717,164.619 73.513,167.143 69.751,166.952 69.943,170.714 67.419,167.917 64.894,170.714 65.087,166.952 
				61.324,167.143 64.119,164.619 61.324,162.094 65.087,162.288 64.894,158.525 			"/>
			<polygon fill-rule="evenodd" clip-rule="evenodd" fill="#DBA223" points="124.897,91.496 127.421,88.702 127.229,92.463 
				130.991,92.27 128.195,94.794 130.991,97.318 127.229,97.127 127.421,100.889 124.897,98.093 122.373,100.889 122.565,97.127 
				118.803,97.318 121.599,94.794 118.803,92.27 122.565,92.463 122.373,88.702 			"/>
		</g>
		<g>
			<g>
				<path fill="#9E3F23" d="M122.41,113.995c20.146,0,36.796,16.231,37.116,36.183c0.161,10.094-3.52,19.587-10.366,26.729
					c-6.836,7.133-16.087,11.146-26.048,11.3c-0.201,0.003-0.402,0.004-0.602,0.004c-20.55,0-36.884-16.107-37.186-36.67
					c-0.3-20.341,16.039-37.181,36.421-37.54C121.967,113.997,122.188,113.995,122.41,113.995L122.41,113.995 M122.409,110.756
					c-0.239,0-0.48,0.002-0.721,0.006c-22.241,0.392-39.93,18.626-39.603,40.826c0.327,22.299,18.209,39.861,40.424,39.861
					c0.216,0,0.435-0.001,0.652-0.005c22.399-0.346,39.964-18.673,39.602-41.319C162.414,128.309,144.34,110.756,122.409,110.756
					L122.409,110.756z"/>
			</g>
		</g>
		<g>
			<g>
				<path fill="#494738" d="M122.417,119.297v2.062c16.021,0,29.261,12.911,29.514,28.781c0.129,8.024-2.798,15.572-8.243,21.252
					c-5.438,5.674-12.796,8.865-20.719,8.986c-0.161,0.002-0.323,0.004-0.483,0.004c-16.339,0-29.328-12.809-29.569-29.16
					c-0.238-16.18,12.756-29.574,28.967-29.858c0.176-0.003,0.355-0.005,0.53-0.005L122.417,119.297 M122.414,119.297
					c-0.188,0-0.378,0.001-0.566,0.005c-17.405,0.305-31.249,14.575-30.993,31.95c0.257,17.447,14.249,31.191,31.631,31.191
					c0.171,0,0.344-0.001,0.516-0.004c17.529-0.267,31.277-14.611,30.992-32.333C153.721,133.032,139.577,119.295,122.414,119.297
					L122.414,119.297z"/>
			</g>
		</g>
		<g>
			<g>
				<path fill="#494738" d="M122.416,128.749c12.009,0,21.935,9.676,22.126,21.569c0.096,6.018-2.098,11.678-6.179,15.936
					c-4.076,4.252-9.59,6.644-15.529,6.734c-0.121,0.002-0.243,0.003-0.363,0.003c-12.247,0-21.983-9.602-22.165-21.858
					c-0.177-12.128,9.564-22.167,21.714-22.38C122.152,128.75,122.284,128.749,122.416,128.749L122.416,128.749 M122.416,126.686
					c-0.144,0-0.288,0.001-0.432,0.004c-13.333,0.233-23.934,11.165-23.74,24.472c0.198,13.363,10.914,23.891,24.227,23.891
					c0.131,0,0.264-0.001,0.396-0.003c13.427-0.204,23.956-11.191,23.738-24.765C146.394,137.207,135.561,126.686,122.416,126.686
					L122.416,126.686z"/>
			</g>
		</g>
		<circle fill-rule="evenodd" clip-rule="evenodd" fill="#494738" cx="123.021" cy="124.009" r="2.827"/>
		<circle fill-rule="evenodd" clip-rule="evenodd" fill="#494738" cx="132.834" cy="126.055" r="2.827"/>
		<circle fill-rule="evenodd" clip-rule="evenodd" fill="#494738" cx="140.669" cy="131.08" r="2.827"/>
		<circle fill-rule="evenodd" clip-rule="evenodd" fill="#494738" cx="146.113" cy="138.027" r="2.827"/>
		<circle fill-rule="evenodd" clip-rule="evenodd" fill="#494738" cx="148.865" cy="146.009" r="2.827"/>
		<circle fill-rule="evenodd" clip-rule="evenodd" fill="#494738" cx="149.012" cy="154.377" r="2.827"/>
		<circle fill-rule="evenodd" clip-rule="evenodd" fill="#494738" cx="146.631" cy="162.599" r="2.827"/>
		<circle fill-rule="evenodd" clip-rule="evenodd" fill="#494738" cx="141.852" cy="169.659" r="2.828"/>
		<path fill-rule="evenodd" clip-rule="evenodd" fill="#494738" d="M138.027,174.687c0,1.562-1.266,2.826-2.829,2.826
			c-1.559,0-2.825-1.264-2.825-2.826c0-1.564,1.266-2.827,2.825-2.827C136.762,171.86,138.027,173.123,138.027,174.687z"/>
		<circle fill-rule="evenodd" clip-rule="evenodd" fill="#494738" cx="127.251" cy="177.265" r="2.827"/>
		<circle fill-rule="evenodd" clip-rule="evenodd" fill="#494738" cx="118.201" cy="177.493" r="2.827"/>
		<circle fill-rule="evenodd" clip-rule="evenodd" fill="#494738" cx="109.776" cy="174.662" r="2.827"/>
		<circle fill-rule="evenodd" clip-rule="evenodd" fill="#494738" cx="102.681" cy="169.216" r="2.827"/>
		<circle fill-rule="evenodd" clip-rule="evenodd" fill="#494738" cx="98.065" cy="162.36" r="2.827"/>
		<circle fill-rule="evenodd" clip-rule="evenodd" fill="#494738" cx="95.697" cy="154.583" r="2.826"/>
		<circle fill-rule="evenodd" clip-rule="evenodd" fill="#494738" cx="95.918" cy="145.676" r="2.827"/>
		<circle fill-rule="evenodd" clip-rule="evenodd" fill="#494738" cx="99.195" cy="137.345" r="2.827"/>
		<circle fill-rule="evenodd" clip-rule="evenodd" fill="#494738" cx="104.642" cy="130.639" r="2.827"/>
		<circle fill-rule="evenodd" clip-rule="evenodd" fill="#494738" cx="112.657" cy="125.704" r="2.827"/>
		<circle fill-rule="evenodd" clip-rule="evenodd" fill="#9E3F23" cx="122.403" cy="150.842" r="22.605"/>
		<g>
			
				<polygon fill-rule="evenodd" clip-rule="evenodd" fill="#DBA223" stroke="#FFFFFF" stroke-width="1.7475" stroke-miterlimit="10" points="
				123.056,143.506 128.505,137.471 128.091,145.592 136.211,145.175 130.177,150.626 136.211,156.073 128.091,155.66 
				128.505,163.78 123.056,157.746 117.608,163.78 118.022,155.66 109.901,156.073 115.937,150.626 109.901,145.175 
				118.022,145.592 117.608,137.471 			"/>
			<circle fill-rule="evenodd" clip-rule="evenodd" fill="#494738" cx="123.056" cy="150.626" r="3.188"/>
		</g>
	</g>
</g>
</svg>
